<svg xmlns="http://www.w3.org/2000/svg" width="276" height="47" fill="none" viewBox="0 0 276 47"><g clip-path="url(#clip0_740_2180)"><path fill="#4171F7" d="M76.5042 34.0835L86.7397 21.5092C88.326 19.621 91.2091 16.775 91.2091 16.775H77.1111V9.59155H101.307V15.4204L91.0159 27.8169C89.3054 29.9377 86.4224 32.7974 86.4224 32.7974H101.789V39.9671H76.5042V34.0835Z"/><path fill="#4171F7" d="M105.238 24.7793C105.238 16.0361 112.094 8.9895 121.102 8.9895C129.434 8.9895 135.986 16.0361 135.986 24.6698C135.978 25.6438 135.919 26.6166 135.807 27.5843H113.556C114.536 31.7712 118.026 33.7825 122.067 33.7825C125.006 33.7825 128.068 32.9342 130.33 31.4154L133.393 37.2442C130.006 39.4395 126.044 40.6003 121.998 40.5828C113.073 40.5828 105.238 34.8087 105.238 24.7793ZM128.261 22.1796C127.654 18.3485 124.592 15.8035 120.853 15.8035C117.294 15.8035 114.232 18.3485 113.446 22.1796H128.261Z"/><path fill="#4171F7" d="M141.366 0H149.574V39.9808H141.366V0Z"/><path fill="#4171F7" d="M154.898 24.7794C154.898 15.9677 162.127 8.98956 171.258 8.98956C175.262 8.95746 179.148 10.3343 182.225 12.8754L177.259 18.5811C175.852 17.3086 173.893 16.515 171.438 16.515C166.665 16.515 163.23 19.9768 163.23 24.7794C163.23 29.5136 166.472 33.0437 171.686 33.0437C174.252 33.0437 176.776 32.0722 178.363 30.5535L182.708 36.6286C179.77 39.1188 175.659 40.5829 171.258 40.5829C162.127 40.5829 154.898 33.591 154.898 24.7794Z"/><path fill="#4171F7" d="M185.039 24.7793C185.039 15.9677 192.268 8.9895 201.399 8.9895C210.587 8.9895 217.815 15.9813 217.815 24.7793C217.815 33.5773 210.587 40.5691 201.399 40.5691C192.268 40.5828 185.039 33.591 185.039 24.7793ZM209.414 24.7793C209.414 20.0451 205.979 16.515 201.386 16.515C196.792 16.515 193.357 20.0451 193.357 24.7793C193.357 29.5819 196.792 33.0436 201.386 33.0436C205.979 33.0436 209.414 29.5819 209.414 24.7793Z"/><path fill="#4171F7" d="M223.139 9.59155H231.223V15.4204C232.078 12.9301 235.21 8.97583 241.941 8.97583V17.8422C234.837 17.8422 231.347 21.0576 231.347 28.2958V39.9671H223.139V9.59155Z"/><path fill="#4171F7" d="M245.252 24.7793C245.252 16.0361 252.108 8.9895 261.116 8.9895C269.448 8.9895 276 16.0361 276 24.6698C275.992 25.6438 275.933 26.6166 275.821 27.5843H253.57C254.55 31.7712 258.04 33.7825 262.081 33.7825C265.02 33.7825 268.082 32.9342 270.344 31.4154L273.407 37.2442C270.02 39.4395 266.058 40.6003 262.012 40.5828C253.087 40.5828 245.252 34.8087 245.252 24.7793ZM268.275 22.1796C267.668 18.3485 264.606 15.8035 260.867 15.8035C257.308 15.8035 254.246 18.3485 253.46 22.1796H268.275Z"/><path fill="url(#paint0_linear_740_2180)" d="M49.3291 33.0573V11.0966L30.1548 0.123047L10.9805 11.0966V33.0573L30.1548 44.0444L49.3291 33.0573Z"/><path fill="url(#paint1_linear_740_2180)" d="M30.141 22.1249L10.9805 11.1514V33.0573L30.141 44.0308V22.1249Z" opacity=".56"/><path fill="url(#paint2_linear_740_2180)" d="M30.1409 44.0309L30.1547 44.0445L49.329 33.0574V11.1514L49.3152 11.1377L30.1409 22.1249V44.0309Z" opacity=".56"/><path fill="#F0F0F0" d="M60.337 23.9172V39.2965L46.9012 46.9999L33.4653 39.2965V23.9172L46.9012 16.2275L60.337 23.9172Z"/><path fill="#fff" d="M60.337 23.9172V39.2965L46.9012 46.9999L33.4653 39.2965V23.9172L46.9012 16.2275L60.337 23.9172Z"/><path fill="url(#paint3_linear_740_2180)" d="M46.9012 31.6069L33.4653 23.9172L46.9012 16.2275L60.337 23.9172L46.9012 31.6069Z"/><path fill="url(#paint4_linear_740_2180)" d="M46.9012 46.9999L33.4653 39.2966V23.9172L46.9012 31.6069V46.9999Z"/><path fill="url(#paint5_linear_740_2180)" d="M60.3369 39.2966L46.9011 46.9999V31.6069L60.3369 23.9172V39.2966Z"/><path fill="#F0F0F0" d="M26.8717 23.9172V39.2965L13.4358 46.9999L0 39.2965V23.9172L13.4358 16.2275L26.8717 23.9172Z"/><path fill="url(#paint6_linear_740_2180)" d="M13.4358 46.9999L0 39.2966V23.9172L13.4358 31.6069V46.9999Z"/><path fill="url(#paint7_linear_740_2180)" d="M26.8716 39.2966L13.4358 46.9999V31.6069L26.8716 23.9172V39.2966Z"/><path fill="url(#paint8_linear_740_2180)" d="M13.4358 31.6069L0 23.9172L13.4358 16.2275L26.8717 23.9172L13.4358 31.6069Z"/></g><defs><linearGradient id="paint0_linear_740_2180" x1="49.147" x2="11.06" y1="22.084" y2="22.084" gradientUnits="userSpaceOnUse"><stop stop-color="#4171F7"/><stop offset="1" stop-color="#F74BDA"/></linearGradient><linearGradient id="paint1_linear_740_2180" x1="13.486" x2="25.371" y1="31.852" y2="24.577" gradientUnits="userSpaceOnUse"><stop stop-color="#fff" stop-opacity="0"/><stop offset="1" stop-color="#fff" stop-opacity=".4"/></linearGradient><linearGradient id="paint2_linear_740_2180" x1="31.831" x2="46.987" y1="23.634" y2="31.346" gradientUnits="userSpaceOnUse"><stop stop-color="#231F20" stop-opacity=".4"/><stop offset="1" stop-color="#231F20" stop-opacity="0"/></linearGradient><linearGradient id="paint3_linear_740_2180" x1="33.465" x2="60.337" y1="23.917" y2="23.917" gradientUnits="userSpaceOnUse"><stop stop-color="#fff"/><stop offset="1" stop-color="#EBE9FB"/></linearGradient><linearGradient id="paint4_linear_740_2180" x1="37.938" x2="41.626" y1="24.378" y2="42.863" gradientUnits="userSpaceOnUse"><stop stop-color="#EAE8FC"/><stop offset="1" stop-color="#EAE9F0"/></linearGradient><linearGradient id="paint5_linear_740_2180" x1="55.472" x2="51.88" y1="27.759" y2="42.914" gradientUnits="userSpaceOnUse"><stop stop-color="#DAD4F4"/><stop offset="1" stop-color="#F0F0F0"/></linearGradient><linearGradient id="paint6_linear_740_2180" x1="2.644" x2="9.562" y1="26.982" y2="41.603" gradientUnits="userSpaceOnUse"><stop stop-color="#EAE8FC"/><stop offset="1" stop-color="#F0F0F0"/></linearGradient><linearGradient id="paint7_linear_740_2180" x1="2154.17" x2="1205.92" y1="14547.5" y2="16858.5" gradientUnits="userSpaceOnUse"><stop stop-color="#DAD4F4"/><stop offset="1" stop-color="#F0F0F0"/></linearGradient><linearGradient id="paint8_linear_740_2180" x1="0" x2="26.872" y1="23.917" y2="23.917" gradientUnits="userSpaceOnUse"><stop stop-color="#F7F6FA"/><stop offset="1" stop-color="#EBE9FB"/></linearGradient><clipPath id="clip0_740_2180"><rect width="276" height="47" fill="#fff"/></clipPath></defs></svg>